<mxfile host="app.diagrams.net" agent="Mozilla/5.0 (Windows NT 10.0; Win64; x64) AppleWebKit/537.36 (KHTML, like Gecko) Chrome/126.0.0.0 Safari/537.36" version="24.7.5">
  <diagram name="Page-1" id="1m0R-C3FG05xehfQcU_O">
    <mxGraphModel dx="2119" dy="826" grid="1" gridSize="10" guides="1" tooltips="1" connect="1" arrows="1" fold="1" page="1" pageScale="1" pageWidth="850" pageHeight="1100" math="0" shadow="0">
      <root>
        <mxCell id="0" />
        <mxCell id="1" parent="0" />
        <mxCell id="f1HkGOEVoEMTfKa-3klE-22" style="edgeStyle=orthogonalEdgeStyle;rounded=0;orthogonalLoop=1;jettySize=auto;html=1;sketch=1;curveFitting=1;jiggle=2;" parent="1" source="f1HkGOEVoEMTfKa-3klE-6" target="f1HkGOEVoEMTfKa-3klE-9" edge="1">
          <mxGeometry relative="1" as="geometry" />
        </mxCell>
        <mxCell id="f1HkGOEVoEMTfKa-3klE-6" value="Input PDF" style="whiteSpace=wrap;strokeWidth=2;sketch=1;curveFitting=1;jiggle=2;" parent="1" vertex="1">
          <mxGeometry x="-760" y="114" width="85" height="34" as="geometry" />
        </mxCell>
        <mxCell id="f1HkGOEVoEMTfKa-3klE-7" value="&lt;font style=&quot;font-size: 12px;&quot; face=&quot;Comic Sans MS&quot;&gt;&lt;b&gt;Python&lt;/b&gt;&lt;/font&gt;" style="rounded=0;whiteSpace=wrap;html=1;sketch=1;curveFitting=1;jiggle=2;fillColor=#b1ddf0;strokeColor=#10739e;verticalAlign=top;" parent="1" vertex="1">
          <mxGeometry x="-630" y="21" width="820" height="220" as="geometry" />
        </mxCell>
        <mxCell id="f1HkGOEVoEMTfKa-3klE-23" style="edgeStyle=orthogonalEdgeStyle;rounded=0;orthogonalLoop=1;jettySize=auto;html=1;entryX=0;entryY=0.5;entryDx=0;entryDy=0;sketch=1;curveFitting=1;jiggle=2;" parent="1" source="f1HkGOEVoEMTfKa-3klE-9" target="f1HkGOEVoEMTfKa-3klE-10" edge="1">
          <mxGeometry relative="1" as="geometry" />
        </mxCell>
        <mxCell id="f1HkGOEVoEMTfKa-3klE-9" value="&lt;font face=&quot;Comic Sans MS&quot;&gt;Streamlit&lt;/font&gt;" style="ellipse;whiteSpace=wrap;html=1;aspect=fixed;fillColor=#d0cee2;strokeColor=#56517e;sketch=1;curveFitting=1;jiggle=2;fillStyle=cross-hatch;" parent="1" vertex="1">
          <mxGeometry x="-600" y="91" width="80" height="80" as="geometry" />
        </mxCell>
        <mxCell id="f1HkGOEVoEMTfKa-3klE-24" style="edgeStyle=orthogonalEdgeStyle;rounded=0;orthogonalLoop=1;jettySize=auto;html=1;entryX=0;entryY=0.5;entryDx=0;entryDy=0;sketch=1;curveFitting=1;jiggle=2;" parent="1" source="f1HkGOEVoEMTfKa-3klE-10" target="f1HkGOEVoEMTfKa-3klE-19" edge="1">
          <mxGeometry relative="1" as="geometry" />
        </mxCell>
        <mxCell id="f1HkGOEVoEMTfKa-3klE-10" value="&lt;font face=&quot;Comic Sans MS&quot;&gt;LangChain&lt;/font&gt;" style="rounded=0;whiteSpace=wrap;html=1;sketch=1;curveFitting=1;jiggle=2;fillColor=#6A9BF0;strokeColor=#10739e;verticalAlign=top;fillOpacity=100;" parent="1" vertex="1">
          <mxGeometry x="-455" y="56" width="205" height="150" as="geometry" />
        </mxCell>
        <mxCell id="f1HkGOEVoEMTfKa-3klE-11" value="&lt;font face=&quot;Comic Sans MS&quot;&gt;Semantiazação&lt;/font&gt;" style="rounded=0;whiteSpace=wrap;html=1;sketch=1;curveFitting=1;jiggle=2;fillColor=#7AE685;strokeColor=#0e8088;verticalAlign=top;" parent="1" vertex="1">
          <mxGeometry x="-425" y="97.5" width="150" height="30" as="geometry" />
        </mxCell>
        <mxCell id="f1HkGOEVoEMTfKa-3klE-12" value="&lt;font face=&quot;Comic Sans MS&quot;&gt;Embedding&lt;/font&gt;" style="rounded=0;whiteSpace=wrap;html=1;sketch=1;curveFitting=1;jiggle=2;fillColor=#7AE685;strokeColor=#10739e;verticalAlign=top;" parent="1" vertex="1">
          <mxGeometry x="-430" y="146" width="150" height="30" as="geometry" />
        </mxCell>
        <mxCell id="f1HkGOEVoEMTfKa-3klE-25" style="edgeStyle=orthogonalEdgeStyle;rounded=0;orthogonalLoop=1;jettySize=auto;html=1;sketch=1;curveFitting=1;jiggle=2;" parent="1" source="f1HkGOEVoEMTfKa-3klE-19" target="f1HkGOEVoEMTfKa-3klE-20" edge="1">
          <mxGeometry relative="1" as="geometry" />
        </mxCell>
        <mxCell id="f1HkGOEVoEMTfKa-3klE-19" value="&lt;font face=&quot;Comic Sans MS&quot;&gt;K-means&lt;/font&gt;" style="rounded=0;whiteSpace=wrap;html=1;sketch=1;curveFitting=1;jiggle=2;fillColor=#fad7ac;strokeColor=#b46504;verticalAlign=top;" parent="1" vertex="1">
          <mxGeometry x="-200" y="116" width="150" height="30" as="geometry" />
        </mxCell>
        <mxCell id="f1HkGOEVoEMTfKa-3klE-27" style="edgeStyle=orthogonalEdgeStyle;rounded=0;orthogonalLoop=1;jettySize=auto;html=1;sketch=1;curveFitting=1;jiggle=2;" parent="1" source="f1HkGOEVoEMTfKa-3klE-20" target="f1HkGOEVoEMTfKa-3klE-26" edge="1">
          <mxGeometry relative="1" as="geometry" />
        </mxCell>
        <mxCell id="f1HkGOEVoEMTfKa-3klE-20" value="&lt;font face=&quot;Comic Sans MS&quot;&gt;OpenAI&lt;/font&gt;" style="rounded=0;whiteSpace=wrap;html=1;sketch=1;curveFitting=1;jiggle=2;fillColor=#bac8d3;strokeColor=#23445d;verticalAlign=top;" parent="1" vertex="1">
          <mxGeometry y="116" width="150" height="30" as="geometry" />
        </mxCell>
        <mxCell id="f1HkGOEVoEMTfKa-3klE-26" value="Output PDF" style="whiteSpace=wrap;strokeWidth=2;sketch=1;curveFitting=1;jiggle=2;fontFamily=Comic Sans MS;" parent="1" vertex="1">
          <mxGeometry x="230" y="114" width="85" height="34" as="geometry" />
        </mxCell>
        <mxCell id="f1HkGOEVoEMTfKa-3klE-28" style="edgeStyle=orthogonalEdgeStyle;rounded=0;orthogonalLoop=1;jettySize=auto;html=1;shadow=0;" parent="1" source="f1HkGOEVoEMTfKa-3klE-29" edge="1">
          <mxGeometry relative="1" as="geometry">
            <mxPoint x="-620" y="610" as="targetPoint" />
          </mxGeometry>
        </mxCell>
        <mxCell id="f1HkGOEVoEMTfKa-3klE-29" value="Input PDF" style="whiteSpace=wrap;strokeWidth=2;shadow=0;" parent="1" vertex="1">
          <mxGeometry x="-780" y="593" width="85" height="34" as="geometry" />
        </mxCell>
        <mxCell id="f1HkGOEVoEMTfKa-3klE-47" style="edgeStyle=orthogonalEdgeStyle;rounded=0;orthogonalLoop=1;jettySize=auto;html=1;" parent="1" source="f1HkGOEVoEMTfKa-3klE-42" target="f1HkGOEVoEMTfKa-3klE-46" edge="1">
          <mxGeometry relative="1" as="geometry" />
        </mxCell>
        <mxCell id="f1HkGOEVoEMTfKa-3klE-48" style="edgeStyle=orthogonalEdgeStyle;rounded=0;orthogonalLoop=1;jettySize=auto;html=1;" parent="1" source="f1HkGOEVoEMTfKa-3klE-42" target="f1HkGOEVoEMTfKa-3klE-43" edge="1">
          <mxGeometry relative="1" as="geometry" />
        </mxCell>
        <mxCell id="f1HkGOEVoEMTfKa-3klE-53" style="edgeStyle=orthogonalEdgeStyle;rounded=0;orthogonalLoop=1;jettySize=auto;html=1;entryX=0;entryY=0.5;entryDx=0;entryDy=0;" parent="1" source="f1HkGOEVoEMTfKa-3klE-42" target="f1HkGOEVoEMTfKa-3klE-49" edge="1">
          <mxGeometry relative="1" as="geometry" />
        </mxCell>
        <mxCell id="f1HkGOEVoEMTfKa-3klE-42" value="MAESTRO" style="whiteSpace=wrap;html=1;aspect=fixed;" parent="1" vertex="1">
          <mxGeometry x="-620" y="570" width="80" height="80" as="geometry" />
        </mxCell>
        <mxCell id="f1HkGOEVoEMTfKa-3klE-43" value="S3 Save PDFs" style="sketch=0;points=[[0,0,0],[0.25,0,0],[0.5,0,0],[0.75,0,0],[1,0,0],[0,1,0],[0.25,1,0],[0.5,1,0],[0.75,1,0],[1,1,0],[0,0.25,0],[0,0.5,0],[0,0.75,0],[1,0.25,0],[1,0.5,0],[1,0.75,0]];outlineConnect=0;fontColor=#232F3E;fillColor=#7AA116;strokeColor=#ffffff;dashed=0;verticalLabelPosition=bottom;verticalAlign=top;align=center;html=1;fontSize=12;fontStyle=0;aspect=fixed;shape=mxgraph.aws4.resourceIcon;resIcon=mxgraph.aws4.s3;" parent="1" vertex="1">
          <mxGeometry x="-619" y="730" width="78" height="78" as="geometry" />
        </mxCell>
        <mxCell id="f1HkGOEVoEMTfKa-3klE-46" value="DynamoDB" style="sketch=0;points=[[0,0,0],[0.25,0,0],[0.5,0,0],[0.75,0,0],[1,0,0],[0,1,0],[0.25,1,0],[0.5,1,0],[0.75,1,0],[1,1,0],[0,0.25,0],[0,0.5,0],[0,0.75,0],[1,0.25,0],[1,0.5,0],[1,0.75,0]];outlineConnect=0;fontColor=#232F3E;fillColor=#C925D1;strokeColor=#ffffff;dashed=0;verticalLabelPosition=bottom;verticalAlign=top;align=center;html=1;fontSize=12;fontStyle=0;aspect=fixed;shape=mxgraph.aws4.resourceIcon;resIcon=mxgraph.aws4.dynamodb;" parent="1" vertex="1">
          <mxGeometry x="-620" y="390" width="78" height="78" as="geometry" />
        </mxCell>
        <mxCell id="f1HkGOEVoEMTfKa-3klE-55" style="edgeStyle=orthogonalEdgeStyle;rounded=0;orthogonalLoop=1;jettySize=auto;html=1;" parent="1" source="f1HkGOEVoEMTfKa-3klE-49" target="f1HkGOEVoEMTfKa-3klE-54" edge="1">
          <mxGeometry relative="1" as="geometry" />
        </mxCell>
        <mxCell id="f1HkGOEVoEMTfKa-3klE-49" value="Datamesh" style="rounded=1;whiteSpace=wrap;html=1;verticalAlign=top;" parent="1" vertex="1">
          <mxGeometry x="-455" y="525" width="455" height="170" as="geometry" />
        </mxCell>
        <mxCell id="f1HkGOEVoEMTfKa-3klE-50" value="SOR" style="sketch=0;points=[[0,0,0],[0.25,0,0],[0.5,0,0],[0.75,0,0],[1,0,0],[0,1,0],[0.25,1,0],[0.5,1,0],[0.75,1,0],[1,1,0],[0,0.25,0],[0,0.5,0],[0,0.75,0],[1,0.25,0],[1,0.5,0],[1,0.75,0]];outlineConnect=0;fontColor=#232F3E;fillColor=#7AA116;strokeColor=#ffffff;dashed=0;verticalLabelPosition=bottom;verticalAlign=top;align=center;html=1;fontSize=12;fontStyle=0;aspect=fixed;shape=mxgraph.aws4.resourceIcon;resIcon=mxgraph.aws4.s3;" parent="1" vertex="1">
          <mxGeometry x="-394" y="571" width="78" height="78" as="geometry" />
        </mxCell>
        <mxCell id="f1HkGOEVoEMTfKa-3klE-51" value="SOT" style="sketch=0;points=[[0,0,0],[0.25,0,0],[0.5,0,0],[0.75,0,0],[1,0,0],[0,1,0],[0.25,1,0],[0.5,1,0],[0.75,1,0],[1,1,0],[0,0.25,0],[0,0.5,0],[0,0.75,0],[1,0.25,0],[1,0.5,0],[1,0.75,0]];outlineConnect=0;fontColor=#232F3E;fillColor=#7AA116;strokeColor=#ffffff;dashed=0;verticalLabelPosition=bottom;verticalAlign=top;align=center;html=1;fontSize=12;fontStyle=0;aspect=fixed;shape=mxgraph.aws4.resourceIcon;resIcon=mxgraph.aws4.s3;" parent="1" vertex="1">
          <mxGeometry x="-266.5" y="572" width="78" height="78" as="geometry" />
        </mxCell>
        <mxCell id="f1HkGOEVoEMTfKa-3klE-52" value="SPEC" style="sketch=0;points=[[0,0,0],[0.25,0,0],[0.5,0,0],[0.75,0,0],[1,0,0],[0,1,0],[0.25,1,0],[0.5,1,0],[0.75,1,0],[1,1,0],[0,0.25,0],[0,0.5,0],[0,0.75,0],[1,0.25,0],[1,0.5,0],[1,0.75,0]];outlineConnect=0;fontColor=#232F3E;fillColor=#7AA116;strokeColor=#ffffff;dashed=0;verticalLabelPosition=bottom;verticalAlign=top;align=center;html=1;fontSize=12;fontStyle=0;aspect=fixed;shape=mxgraph.aws4.resourceIcon;resIcon=mxgraph.aws4.s3;" parent="1" vertex="1">
          <mxGeometry x="-128" y="572" width="78" height="78" as="geometry" />
        </mxCell>
        <mxCell id="f1HkGOEVoEMTfKa-3klE-54" value="Quicksight" style="outlineConnect=0;dashed=0;verticalLabelPosition=bottom;verticalAlign=top;align=center;html=1;shape=mxgraph.aws3.quicksight;fillColor=#00B7F4;gradientColor=none;" parent="1" vertex="1">
          <mxGeometry x="110" y="581" width="60" height="60" as="geometry" />
        </mxCell>
      </root>
    </mxGraphModel>
  </diagram>
</mxfile>
